<?xml version="1.0" encoding="UTF-8"?>
<svg width="201px" height="29px" viewBox="0 0 201 29" version="1.1" xmlns="http://www.w3.org/2000/svg" xmlns:xlink="http://www.w3.org/1999/xlink">
    <title>Group</title>
    <defs>
        <linearGradient x1="30.8497962%" y1="104.278692%" x2="77.542076%" y2="-12.6056495%" id="linearGradient-1">
            <stop stop-color="#008DC4" offset="0%"></stop>
            <stop stop-color="#00AFF0" offset="100%"></stop>
        </linearGradient>
    </defs>
    <g id="Page-1" stroke="none" stroke-width="1" fill="none" fill-rule="evenodd">
        <g id="Group" transform="translate(0.000000, 0.064000)">
            <path d="M117,27.332 C117.984,27.332 118.896,27.194 119.736,26.918 C120.576,26.642 121.164,26.396 121.5,26.18 L120.924,24.236 C120.588,24.428 120.12,24.638 119.52,24.866 C118.92,25.094 118.128,25.208 117.144,25.208 C116.568,25.208 116.04,25.148 115.56,25.028 C115.08,24.908 114.672,24.668 114.336,24.308 C114,23.948 113.742,23.438 113.562,22.778 C113.382,22.118 113.292,21.26 113.292,20.204 L113.292,10.304 L120.708,10.304 L120.708,8.324 L113.292,8.324 L113.292,2.42 L110.952,2.42 L110.952,19.988 C110.952,21.236 111.048,22.316 111.24,23.228 C111.432,24.14 111.762,24.902 112.23,25.514 C112.698,26.126 113.322,26.582 114.102,26.882 C114.882,27.182 115.848,27.332 117,27.332 Z M131.508,27.368 C132.756,27.368 133.896,27.134 134.928,26.666 C135.96,26.198 136.854,25.544 137.61,24.704 C138.366,23.864 138.954,22.844 139.374,21.644 C139.794,20.444 140.004,19.112 140.004,17.648 C140.004,16.184 139.794,14.852 139.374,13.652 C138.954,12.452 138.366,11.426 137.61,10.574 C136.854,9.722 135.96,9.062 134.928,8.594 C133.896,8.126 132.756,7.892 131.508,7.892 C130.26,7.892 129.12,8.126 128.088,8.594 C127.056,9.062 126.162,9.722 125.406,10.574 C124.65,11.426 124.062,12.452 123.642,13.652 C123.222,14.852 123.012,16.184 123.012,17.648 C123.012,19.112 123.222,20.444 123.642,21.644 C124.062,22.844 124.65,23.864 125.406,24.704 C126.162,25.544 127.056,26.198 128.088,26.666 C129.12,27.134 130.26,27.368 131.508,27.368 Z M131.508,25.244 C129.66,25.244 128.196,24.56 127.116,23.192 C126.036,21.824 125.496,19.976 125.496,17.648 C125.496,15.32 126.036,13.466 127.116,12.086 C128.196,10.706 129.66,10.016 131.508,10.016 C133.356,10.016 134.82,10.706 135.9,12.086 C136.98,13.466 137.52,15.32 137.52,17.648 C137.52,19.976 136.98,21.824 135.9,23.192 C134.82,24.56 133.356,25.244 131.508,25.244 Z M150.336,26.936 C150.696,26.096 151.074,25.154 151.47,24.11 C151.866,23.066 152.274,21.95 152.694,20.762 C153.114,19.574 153.522,18.326 153.918,17.018 C154.314,15.71 154.692,14.372 155.052,13.004 C155.412,14.372 155.79,15.71 156.186,17.018 C156.582,18.326 156.99,19.574 157.41,20.762 C157.83,21.95 158.238,23.066 158.634,24.11 C159.03,25.154 159.408,26.096 159.768,26.936 L159.768,26.936 L161.964,26.936 C163.188,24.224 164.31,21.356 165.33,18.332 C166.35,15.308 167.292,11.972 168.156,8.324 L168.156,8.324 L165.852,8.324 C165.588,9.596 165.258,10.97 164.862,12.446 C164.466,13.922 164.04,15.386 163.584,16.838 C163.128,18.29 162.672,19.67 162.216,20.978 C161.76,22.286 161.328,23.396 160.92,24.308 C160.44,23.108 159.966,21.824 159.498,20.456 C159.03,19.088 158.586,17.702 158.166,16.298 C157.746,14.894 157.362,13.514 157.014,12.158 C156.666,10.802 156.384,9.524 156.168,8.324 L156.168,8.324 L154.152,8.324 C153.888,9.524 153.576,10.802 153.216,12.158 C152.856,13.514 152.472,14.888 152.064,16.28 C151.656,17.672 151.218,19.052 150.75,20.42 C150.282,21.788 149.82,23.072 149.364,24.272 C148.956,23.36 148.518,22.256 148.05,20.96 C147.582,19.664 147.12,18.29 146.664,16.838 C146.208,15.386 145.782,13.922 145.386,12.446 C144.99,10.97 144.66,9.596 144.396,8.324 L144.396,8.324 L141.912,8.324 C142.776,11.972 143.718,15.308 144.738,18.332 C145.758,21.356 146.88,24.224 148.104,26.936 L148.104,26.936 L150.336,26.936 Z M173.52,26.936 L173.52,10.592 C173.76,10.496 174.282,10.388 175.086,10.268 C175.89,10.148 176.844,10.088 177.948,10.088 C178.98,10.088 179.838,10.214 180.522,10.466 C181.206,10.718 181.758,11.132 182.178,11.708 C182.598,12.284 182.898,13.028 183.078,13.94 C183.258,14.852 183.348,15.968 183.348,17.288 L183.348,17.288 L183.348,26.936 L185.688,26.936 L185.688,16.532 C185.688,15.26 185.568,14.096 185.328,13.04 C185.088,11.984 184.686,11.078 184.122,10.322 C183.558,9.566 182.802,8.984 181.854,8.576 C180.906,8.168 179.724,7.964 178.308,7.964 C176.604,7.964 175.164,8.084 173.988,8.324 C172.812,8.564 171.876,8.78 171.18,8.972 L171.18,8.972 L171.18,26.936 L173.52,26.936 Z" id="town" fill="#000000" fill-rule="nonzero"></path>
            <path d="M47.036,27.332 C48.74,27.332 50.27,27.23 51.626,27.026 C52.982,26.822 53.996,26.648 54.668,26.504 L54.668,15.092 C54.668,13.988 54.542,12.974 54.29,12.05 C54.038,11.126 53.618,10.34 53.03,9.692 C52.442,9.044 51.656,8.54 50.672,8.18 C49.688,7.82 48.476,7.64 47.036,7.64 C45.836,7.64 43.652,7.928 43.652,7.928 C43.652,7.928 43.028,9.296 41.78,12.032 C42.308,11.84 42.992,11.672 43.832,11.528 C44.672,11.384 45.596,11.312 46.604,11.312 C47.348,11.312 47.966,11.408 48.458,11.6 C48.95,11.792 49.346,12.062 49.646,12.41 C49.946,12.758 50.156,13.16 50.276,13.616 C50.396,14.072 50.456,14.552 50.456,15.056 L50.456,15.776 C49.856,15.632 49.292,15.53 48.764,15.47 C48.236,15.41 47.732,15.38 47.252,15.38 C46.22,15.38 45.23,15.482 44.282,15.686 C43.334,15.89 42.5,16.226 41.78,16.694 C41.06,17.162 40.49,17.768 40.07,18.512 C39.65,19.256 39.44,20.168 39.44,21.248 C39.44,22.376 39.626,23.324 39.998,24.092 C40.37,24.86 40.886,25.484 41.546,25.964 C42.206,26.444 43.004,26.792 43.94,27.008 C44.876,27.224 45.908,27.332 47.036,27.332 Z M47.396,23.876 C46.292,23.876 45.416,23.678 44.768,23.282 C44.12,22.886 43.796,22.172 43.796,21.14 C43.796,20.612 43.916,20.174 44.156,19.826 C44.396,19.478 44.714,19.208 45.11,19.016 C45.506,18.824 45.95,18.692 46.442,18.62 C46.934,18.548 47.42,18.512 47.9,18.512 C48.452,18.512 48.956,18.548 49.412,18.62 C49.868,18.692 50.216,18.764 50.456,18.836 L50.456,18.836 L50.456,23.66 C49.76,23.804 48.74,23.876 47.396,23.876 Z M66.428,27.368 C67.532,27.368 68.492,27.254 69.308,27.026 C70.124,26.798 70.784,26.576 71.288,26.36 L70.568,22.904 C70.208,23.048 69.722,23.204 69.11,23.372 C68.498,23.54 67.796,23.624 67.004,23.624 C65.852,23.624 65.036,23.3 64.556,22.652 C64.076,22.004 63.836,20.924 63.836,19.412 L63.836,11.744 L70.532,11.744 L70.532,8.108 L63.836,8.108 L63.836,2 L59.48,2 L59.48,19.448 C59.48,20.696 59.588,21.806 59.804,22.778 C60.02,23.75 60.392,24.578 60.92,25.262 C61.448,25.946 62.162,26.468 63.062,26.828 C63.962,27.188 65.084,27.368 66.428,27.368 Z M82.472,27.404 C83.504,27.404 84.506,27.308 85.478,27.116 C86.45,26.924 87.176,26.708 87.656,26.468 L87.656,26.468 L87.044,22.868 C86.516,23.084 85.892,23.264 85.172,23.408 C84.452,23.552 83.72,23.624 82.976,23.624 C80.984,23.624 79.568,23.078 78.728,21.986 C77.888,20.894 77.468,19.412 77.468,17.54 C77.468,15.596 77.912,14.09 78.8,13.022 C79.688,11.954 80.984,11.42 82.688,11.42 C83.408,11.42 84.086,11.492 84.722,11.636 C85.358,11.78 85.928,11.96 86.432,12.176 L86.432,12.176 L87.368,8.612 C85.784,7.964 84.104,7.64 82.328,7.64 C80.888,7.64 79.592,7.892 78.44,8.396 C77.288,8.9 76.31,9.596 75.506,10.484 C74.702,11.372 74.084,12.422 73.652,13.634 C73.22,14.846 73.004,16.148 73.004,17.54 C73.004,18.956 73.196,20.27 73.58,21.482 C73.964,22.694 74.546,23.738 75.326,24.614 C76.106,25.49 77.09,26.174 78.278,26.666 C79.466,27.158 80.864,27.404 82.472,27.404 Z M95.096,26.936 L95.096,11.96 C95.384,11.864 95.828,11.756 96.428,11.636 C97.028,11.516 97.616,11.456 98.192,11.456 C98.936,11.456 99.56,11.558 100.064,11.762 C100.568,11.966 100.97,12.29 101.27,12.734 C101.57,13.178 101.786,13.754 101.918,14.462 C102.05,15.17 102.116,16.028 102.116,17.036 L102.116,26.936 L106.472,26.936 L106.472,16.352 C106.472,15.056 106.346,13.88 106.094,12.824 C105.842,11.768 105.416,10.862 104.816,10.106 C104.216,9.35 103.418,8.762 102.422,8.342 C101.426,7.922 100.172,7.712 98.66,7.712 C98.036,7.712 97.406,7.772 96.77,7.892 C96.134,8.012 95.576,8.156 95.096,8.324 L95.096,2.42 L90.74,2.42 L90.74,26.936 L95.096,26.936 Z" id="atch" fill="#000000" fill-rule="nonzero"></path>
            <g id="Group-2" transform="translate(0.000000, 0.196658)">
                <polygon id="Path-2" fill="#000000" points="1.77635684e-15 3.13247235 2.45275006 0.779097774 16.7154464 15.7343697 24.4363958 5.79002127 28.9977258 11.2412897 18.0164699 26.7393417"></polygon>
                <polygon id="Path-3" fill="url(#linearGradient-1)" points="40.5462873 0 42.7466158 2.14679977 29.2858441 26.7393417 24.3258147 21.6793417"></polygon>
            </g>
            <path d="M189.83,14.936 L189.83,12.226 L190.975,12.226 C191.065,12.226 191.153333,12.2226667 191.24,12.216 C191.366667,12.3693333 191.508333,12.5493333 191.665,12.756 C191.821667,12.9626667 191.98,13.1843333 192.14,13.421 C192.3,13.6576667 192.458333,13.906 192.615,14.166 C192.771667,14.426 192.916667,14.6826667 193.05,14.936 L193.05,14.936 L194.11,14.936 C193.99,14.6693333 193.845,14.3926667 193.675,14.106 C193.505,13.8193333 193.333333,13.5443333 193.16,13.281 C192.986667,13.0176667 192.818333,12.7776667 192.655,12.561 C192.491667,12.3443333 192.356667,12.1693333 192.25,12.036 C192.723333,11.876 193.081667,11.6326667 193.325,11.306 C193.568333,10.9793333 193.69,10.586 193.69,10.126 C193.69,9.39933333 193.435,8.85266667 192.925,8.486 C192.415,8.11933333 191.673333,7.936 190.7,7.936 C190.42,7.936 190.111667,7.94766667 189.775,7.971 C189.438333,7.99433333 189.133333,8.03933333 188.86,8.106 L188.86,8.106 L188.86,14.936 L189.83,14.936 Z M190.52,11.426 L189.83,11.426 L189.83,8.816 C190.05,8.796 190.366667,8.786 190.78,8.786 C191.04,8.786 191.285,8.806 191.515,8.846 C191.745,8.886 191.945,8.956 192.115,9.056 C192.285,9.156 192.42,9.29266667 192.52,9.466 C192.62,9.63933333 192.67,9.856 192.67,10.116 C192.67,10.396 192.62,10.621 192.52,10.791 C192.42,10.961 192.278333,11.0926667 192.095,11.186 C191.911667,11.2793333 191.686667,11.3426667 191.42,11.376 C191.153333,11.4093333 190.853333,11.426 190.52,11.426 L190.52,11.426 Z M198.146667,15.086 C198.6,15.086 198.991667,15.016 199.321667,14.876 C199.651667,14.736 199.925,14.5443333 200.141667,14.301 C200.358334,14.0576667 200.518334,13.7693333 200.621667,13.436 C200.725,13.1026667 200.776667,12.7426667 200.776667,12.356 L200.776667,12.356 L200.776667,8.006 L199.806667,8.006 L199.806667,12.246 C199.806667,12.5926667 199.766667,12.891 199.686667,13.141 C199.606667,13.391 199.493334,13.596 199.346667,13.756 C199.2,13.916 199.025,14.0343333 198.821667,14.111 C198.618334,14.1876667 198.393334,14.226 198.146667,14.226 C197.653334,14.226 197.253334,14.0693333 196.946667,13.756 C196.64,13.4426667 196.486667,12.9393333 196.486667,12.246 L196.486667,12.246 L196.486667,8.006 L195.516667,8.006 L195.516667,12.356 C195.516667,12.7426667 195.568334,13.1026667 195.671667,13.436 C195.775,13.7693333 195.933334,14.0576667 196.146667,14.301 C196.36,14.5443333 196.633334,14.736 196.966667,14.876 C197.3,15.016 197.693334,15.086 198.146667,15.086 Z" id="RU" fill="#000000" fill-rule="nonzero"></path>
        </g>
    </g>
</svg>